# Blender v2.93.6 OBJ File: 'Missle.blend'
# www.blender.org
mtllib Missle.mtl
o Missle_Cube
v -0.122743 2.001925 -0.297145
v -0.297145 2.001925 -0.122743
v -0.122743 2.001925 0.297145
v -0.297145 2.001925 0.122743
v 0.297145 2.001925 0.122743
v 0.122743 2.001925 0.297145
v 0.297145 2.001925 -0.122743
v 0.122743 2.001925 -0.297145
v 0.096060 -2.984923 -0.232729
v 0.232729 -2.984923 -0.096060
v -0.232729 -2.984923 -0.096060
v -0.096060 -2.984923 -0.232729
v 0.297145 -2.984923 -0.122743
v 0.122743 -2.984923 -0.297145
v 0.122743 -2.984923 0.297145
v 0.297145 -2.984923 0.122743
v -0.297145 -2.984923 0.122743
v -0.122743 -2.984923 0.297145
v -0.122743 -2.984923 -0.297145
v -0.297145 -2.984923 -0.122743
v 0.096060 -2.984923 0.232729
v 0.232729 -2.984923 0.096060
v -0.232729 -2.984923 0.096060
v -0.096060 -2.984923 0.232729
v 0.232729 -2.791020 -0.096060
v 0.096060 -2.791020 -0.232729
v 0.096060 -2.791020 0.232729
v 0.232729 -2.791020 0.096060
v -0.232729 -2.791020 0.096060
v -0.096060 -2.791020 0.232729
v -0.096060 -2.791020 -0.232729
v -0.232729 -2.791020 -0.096060
v -0.225184 -1.740606 -0.151129
v -0.490101 -2.446327 -0.443669
v -0.239385 -2.752639 -0.160585
v -0.500642 -2.736108 -0.450689
v -0.466207 -2.736609 -0.481728
v -0.204950 -2.753140 -0.191624
v -0.455666 -2.446828 -0.474708
v -0.190749 -1.741107 -0.182168
v 0.122743 2.001925 -0.297145
v 0.297145 2.001925 -0.122743
v 0.122743 2.001925 0.297145
v 0.297145 2.001925 0.122743
v -0.297145 2.001925 0.122743
v -0.122743 2.001925 0.297145
v -0.297145 2.001925 -0.122743
v -0.122743 2.001925 -0.297145
v -0.096060 -2.984923 -0.232729
v -0.232729 -2.984923 -0.096060
v 0.232729 -2.984923 -0.096060
v 0.096060 -2.984923 -0.232729
v -0.297145 -2.984923 -0.122743
v -0.122743 -2.984923 -0.297145
v -0.122743 -2.984923 0.297145
v -0.297145 -2.984923 0.122743
v 0.297145 -2.984923 0.122743
v 0.122743 -2.984923 0.297145
v 0.122743 -2.984923 -0.297145
v 0.297145 -2.984923 -0.122743
v -0.096060 -2.984923 0.232729
v -0.232729 -2.984923 0.096060
v 0.232729 -2.984923 0.096060
v 0.096060 -2.984923 0.232729
v -0.232729 -2.791020 -0.096060
v -0.096060 -2.791020 -0.232729
v -0.096060 -2.791020 0.232729
v -0.232729 -2.791020 0.096060
v 0.232729 -2.791020 0.096060
v 0.096060 -2.791020 0.232729
v 0.096060 -2.791020 -0.232729
v 0.232729 -2.791020 -0.096060
v 0.225184 -1.740606 -0.151129
v 0.490101 -2.446327 -0.443669
v 0.239385 -2.752639 -0.160585
v 0.500642 -2.736108 -0.450689
v 0.466207 -2.736609 -0.481728
v 0.204950 -2.753140 -0.191624
v 0.455666 -2.446828 -0.474708
v 0.190749 -1.741107 -0.182168
v -0.122743 2.001925 0.297145
v -0.297145 2.001925 0.122743
v -0.122743 2.001925 -0.297145
v -0.297145 2.001925 -0.122743
v 0.297145 2.001925 -0.122743
v 0.122743 2.001925 -0.297145
v 0.297145 2.001925 0.122743
v 0.122743 2.001925 0.297145
v 0.096060 -2.984923 0.232729
v 0.232729 -2.984923 0.096060
v -0.232729 -2.984923 0.096060
v -0.096060 -2.984923 0.232729
v 0.297145 -2.984923 0.122743
v 0.122743 -2.984923 0.297145
v 0.122743 -2.984923 -0.297145
v 0.297145 -2.984923 -0.122743
v -0.297145 -2.984923 -0.122743
v -0.122743 -2.984923 -0.297145
v -0.122743 -2.984923 0.297145
v -0.297145 -2.984923 0.122743
v 0.096060 -2.984923 -0.232729
v 0.232729 -2.984923 -0.096060
v -0.232729 -2.984923 -0.096060
v -0.096060 -2.984923 -0.232729
v 0.232729 -2.791020 0.096060
v 0.096060 -2.791020 0.232729
v 0.096060 -2.791020 -0.232729
v 0.232729 -2.791020 -0.096060
v -0.232729 -2.791020 -0.096060
v -0.096060 -2.791020 -0.232729
v -0.096060 -2.791020 0.232729
v -0.232729 -2.791020 0.096060
v -0.225184 -1.740606 0.151129
v -0.490101 -2.446327 0.443669
v -0.239385 -2.752639 0.160585
v -0.500642 -2.736108 0.450689
v -0.466207 -2.736609 0.481728
v -0.204950 -2.753140 0.191624
v -0.455666 -2.446828 0.474708
v -0.190749 -1.741107 0.182168
v 0.122743 2.001925 0.297145
v 0.297145 2.001925 0.122743
v 0.122743 2.001925 -0.297145
v 0.297145 2.001925 -0.122743
v -0.297145 2.001925 -0.122743
v -0.122743 2.001925 -0.297145
v -0.297145 2.001925 0.122743
v -0.122743 2.001925 0.297145
v 0.000000 2.911594 0.000000
v -0.096060 -2.984923 0.232729
v -0.232729 -2.984923 0.096060
v 0.232729 -2.984923 0.096060
v 0.096060 -2.984923 0.232729
v -0.297145 -2.984923 0.122743
v -0.122743 -2.984923 0.297145
v -0.122743 -2.984923 -0.297145
v -0.297145 -2.984923 -0.122743
v 0.297145 -2.984923 -0.122743
v 0.122743 -2.984923 -0.297145
v 0.122743 -2.984923 0.297145
v 0.297145 -2.984923 0.122743
v -0.096060 -2.984923 -0.232729
v -0.232729 -2.984923 -0.096060
v 0.232729 -2.984923 -0.096060
v 0.096060 -2.984923 -0.232729
v -0.232729 -2.791020 0.096060
v -0.096060 -2.791020 0.232729
v -0.096060 -2.791020 -0.232729
v -0.232729 -2.791020 -0.096060
v 0.232729 -2.791020 -0.096060
v 0.096060 -2.791020 -0.232729
v 0.096060 -2.791020 0.232729
v 0.232729 -2.791020 0.096060
v 0.225184 -1.740606 0.151129
v 0.490101 -2.446327 0.443669
v 0.239385 -2.752639 0.160585
v 0.500642 -2.736108 0.450689
v 0.466207 -2.736609 0.481728
v 0.204950 -2.753140 0.191624
v 0.455666 -2.446828 0.474708
v 0.190749 -1.741107 0.182168
vt 0.021471 0.611884
vt 0.036592 0.727340
vt 0.000000 0.614121
vt 0.856053 0.000000
vt 0.896636 0.111856
vt 0.875366 0.114846
vt 0.948318 0.111856
vt 0.927048 0.114846
vt 0.907735 0.000000
vt 0.293052 0.113219
vt 0.271581 0.115457
vt 0.256460 0.000000
vt 0.896636 0.115912
vt 0.021471 0.000000
vt 0.051902 0.611892
vt 0.896636 0.726361
vt 0.844955 0.115912
vt 0.241150 0.115448
vt 0.219789 0.725084
vt 0.219789 0.113200
vt 0.271581 0.727340
vt 0.241150 0.727332
vt 0.948318 0.726361
vt 0.917907 0.727427
vt 0.293052 0.725103
vt 0.051902 0.000008
vt 0.073263 0.614141
vt 0.000000 0.002237
vt 0.610813 0.792739
vt 0.637951 0.800686
vt 0.607521 0.800686
vt 0.594052 0.752132
vt 0.586104 0.779270
vt 0.586104 0.748839
vt 0.634659 0.735371
vt 0.607521 0.727423
vt 0.637951 0.727423
vt 0.651420 0.775978
vt 0.659368 0.748839
vt 0.659368 0.779270
vt 0.651420 0.752132
vt 0.634659 0.792739
vt 0.610813 0.735371
vt 0.594052 0.775978
vt 0.813797 0.737099
vt 0.837595 0.760945
vt 0.813803 0.760945
vt 0.442344 0.841211
vt 0.401737 0.857972
vt 0.384976 0.817365
vt 0.558805 0.767996
vt 0.580841 0.784708
vt 0.557050 0.784715
vt 0.493438 0.800610
vt 0.518985 0.817407
vt 0.495193 0.817414
vt 0.518985 0.841253
vt 0.495193 0.841260
vt 0.558805 0.744150
vt 0.582597 0.767990
vt 0.557050 0.727347
vt 0.582597 0.744144
vt 0.517230 0.857972
vt 0.493438 0.857978
vt 0.683046 0.824533
vt 0.659248 0.800686
vt 0.683039 0.800686
vt 0.859769 0.851387
vt 0.854056 0.727498
vt 0.859769 0.727427
vt 0.524705 0.848774
vt 0.530424 0.800604
vt 0.530424 0.848771
vt 0.877773 0.854844
vt 0.882620 0.763254
vt 0.883485 0.854964
vt 0.876909 0.763134
vt 0.883485 0.727547
vt 0.097194 0.764454
vt 0.144380 0.727340
vt 0.144380 0.851577
vt 0.384976 0.851491
vt 0.337800 0.814994
vt 0.384976 0.727340
vt 0.771893 0.612566
vt 0.793273 0.615551
vt 0.752747 0.727423
vt 0.549434 0.727340
vt 0.564743 0.611892
vt 0.586104 0.614141
vt 0.293052 0.113200
vt 0.329723 0.000000
vt 0.314413 0.115448
vt 0.689689 0.615551
vt 0.649162 0.727423
vt 0.668308 0.612566
vt 0.344844 0.115457
vt 0.741481 0.611510
vt 0.793273 0.001055
vt 0.534313 0.611884
vt 0.564743 0.000008
vt 0.637896 0.611510
vt 0.689689 0.001055
vt 0.659277 0.000000
vt 0.314413 0.727332
vt 0.344844 0.727340
vt 0.366315 0.113219
vt 0.366315 0.725103
vt 0.293052 0.725084
vt 0.534313 0.000000
vt 0.512841 0.614121
vt 0.512841 0.002237
vt 0.531502 0.748757
vt 0.523555 0.775895
vt 0.523555 0.752049
vt 0.479656 0.727340
vt 0.506794 0.735288
vt 0.482948 0.735288
vt 0.458239 0.779187
vt 0.466187 0.752049
vt 0.466187 0.775895
vt 0.510086 0.800604
vt 0.482948 0.792656
vt 0.506794 0.792656
vt 0.479656 0.800604
vt 0.531502 0.779187
vt 0.458239 0.748757
vt 0.510086 0.727340
vt 0.557050 0.801518
vt 0.533258 0.825371
vt 0.533258 0.801525
vt 0.789999 0.801552
vt 0.773238 0.842159
vt 0.732631 0.825398
vt 0.557050 0.825364
vt 0.531502 0.842089
vt 0.555294 0.784715
vt 0.531502 0.784721
vt 0.706837 0.800686
vt 0.683052 0.824533
vt 0.683046 0.800686
vt 0.790005 0.784791
vt 0.813791 0.760945
vt 0.813797 0.784791
vt 0.609896 0.800686
vt 0.587860 0.817496
vt 0.586104 0.800693
vt 0.611651 0.841336
vt 0.586104 0.858061
vt 0.587860 0.841342
vt 0.611651 0.817490
vt 0.865483 0.851387
vt 0.871196 0.727498
vt 0.871196 0.851459
vt 0.524705 0.800606
vt 0.518985 0.848771
vt 0.518985 0.800604
vt 0.897501 0.727547
vt 0.902348 0.819137
vt 0.896636 0.819257
vt 0.903212 0.854844
vt 0.897501 0.854964
vt 0.096253 0.851576
vt 0.049068 0.814463
vt 0.096253 0.727340
vt 0.241565 0.763837
vt 0.288741 0.727340
vt 0.288741 0.851491
vt 0.720100 0.612566
vt 0.741481 0.615551
vt 0.700955 0.727423
vt 0.476249 0.000000
vt 0.460940 0.115448
vt 0.439578 0.113200
vt 0.439578 0.614141
vt 0.402908 0.727340
vt 0.418217 0.611892
vt 0.637896 0.615551
vt 0.597370 0.727423
vt 0.616516 0.612566
vt 0.387787 0.611884
vt 0.689689 0.611510
vt 0.741481 0.001055
vt 0.491370 0.115457
vt 0.460940 0.727332
vt 0.586104 0.611510
vt 0.637896 0.001055
vt 0.607484 0.000000
vt 0.418217 0.000008
vt 0.387787 0.000000
vt 0.366315 0.614121
vt 0.366315 0.002237
vt 0.439578 0.002257
vt 0.491370 0.727340
vt 0.512841 0.113219
vt 0.512841 0.725103
vt 0.659368 0.779270
vt 0.667315 0.752132
vt 0.667315 0.775978
vt 0.711214 0.800686
vt 0.684076 0.792739
vt 0.707922 0.792739
vt 0.732631 0.748839
vt 0.724683 0.775978
vt 0.724683 0.752132
vt 0.680784 0.727423
vt 0.707922 0.735371
vt 0.684076 0.735371
vt 0.711214 0.727423
vt 0.659368 0.748839
vt 0.732631 0.779270
vt 0.680784 0.800686
vt 0.582597 0.801518
vt 0.558805 0.825371
vt 0.558805 0.801525
vt 0.789999 0.825398
vt 0.806760 0.784791
vt 0.847367 0.801552
vt 0.582597 0.825364
vt 0.557050 0.842089
vt 0.580841 0.784715
vt 0.557050 0.784721
vt 0.635456 0.824533
vt 0.659241 0.800686
vt 0.659248 0.824533
vt 0.635443 0.800686
vt 0.611658 0.824533
vt 0.611651 0.800686
vt 0.466136 0.800604
vt 0.444099 0.817414
vt 0.442344 0.800610
vt 0.467891 0.841253
vt 0.442344 0.857978
vt 0.444099 0.841260
vt 0.467891 0.817407
vt 0.859770 0.851387
vt 0.865483 0.727498
vt 0.865483 0.851459
vt 0.844955 0.727429
vt 0.839235 0.775594
vt 0.839235 0.727426
vt 0.884349 0.727547
vt 0.889196 0.819137
vt 0.883485 0.819257
vt 0.890061 0.854844
vt 0.884349 0.854964
vt 0.192506 0.851576
vt 0.145321 0.814463
vt 0.192506 0.727340
vt 0.289683 0.763837
vt 0.336859 0.727340
vt 0.336859 0.851491
vt 0.198318 0.115457
vt 0.183197 0.000000
vt 0.219789 0.113219
vt 0.959417 0.000000
vt 1.000000 0.111856
vt 0.978730 0.114846
vt 0.844955 0.111856
vt 0.823684 0.114846
vt 0.804371 0.000000
vt 0.073263 0.614121
vt 0.094735 0.611884
vt 0.109855 0.727340
vt 0.793273 0.115912
vt 0.198318 0.727340
vt 0.167887 0.115448
vt 1.000000 0.726361
vt 0.948318 0.115912
vt 0.125165 0.611892
vt 0.146526 0.002257
vt 0.146526 0.614141
vt 0.094735 0.000000
vt 0.125165 0.000008
vt 0.844955 0.726361
vt 0.814543 0.727427
vt 0.073263 0.002237
vt 0.167887 0.727332
vt 0.146526 0.113200
vt 0.219789 0.725103
vt 0.433531 0.735288
vt 0.406392 0.727340
vt 0.436823 0.727340
vt 0.450292 0.775895
vt 0.458239 0.748757
vt 0.458239 0.779187
vt 0.409684 0.792656
vt 0.436823 0.800604
vt 0.406392 0.800604
vt 0.392924 0.752049
vt 0.384976 0.779187
vt 0.384976 0.748757
vt 0.392924 0.775895
vt 0.409684 0.735288
vt 0.433531 0.792656
vt 0.450292 0.752049
vt 0.813797 0.760945
vt 0.789999 0.737099
vt 0.813791 0.737099
vt 0.732631 0.744184
vt 0.773238 0.727423
vt 0.789999 0.768030
vt 0.469646 0.841260
vt 0.491683 0.857972
vt 0.467891 0.857978
vt 0.531502 0.727347
vt 0.557050 0.744144
vt 0.533258 0.744150
vt 0.557050 0.767990
vt 0.533258 0.767996
vt 0.469646 0.817414
vt 0.493438 0.841253
vt 0.467891 0.800610
vt 0.493438 0.817407
vt 0.555294 0.784708
vt 0.531502 0.784715
vt 0.706844 0.800686
vt 0.730642 0.824533
vt 0.706850 0.824533
vt 0.876909 0.851387
vt 0.871196 0.727498
vt 0.876909 0.727427
vt 0.844955 0.775596
vt 0.850674 0.727427
vt 0.850674 0.775594
vt 0.890925 0.854844
vt 0.895772 0.763254
vt 0.896636 0.854964
vt 0.890061 0.763134
vt 0.896636 0.727547
vt 0.000941 0.764454
vt 0.048127 0.727340
vt 0.048127 0.851577
vt 0.240624 0.851491
vt 0.193448 0.814994
vt 0.240624 0.727340
vt 0.866225 0.727427
vt 0.073263 0.002257
vt 0.837589 0.737099
vt 0.401737 0.800604
vt 0.425583 0.800604
vt 0.442344 0.817365
vt 0.425583 0.857972
vt 0.384976 0.841211
vt 0.517230 0.800604
vt 0.580841 0.727340
vt 0.659254 0.824533
vt 0.854056 0.851459
vt 0.524705 0.800606
vt 0.877773 0.727427
vt 0.096253 0.728846
vt 0.336859 0.850539
vt 0.762861 0.000000
vt 0.586104 0.002257
vt 0.732631 0.801552
vt 0.749392 0.784791
vt 0.773238 0.784791
vt 0.789999 0.825398
vt 0.749392 0.842159
vt 0.555294 0.842083
vt 0.706844 0.824533
vt 0.789999 0.760945
vt 0.609896 0.858054
vt 0.865483 0.727427
vt 0.524705 0.848774
vt 0.903212 0.727427
vt 0.048127 0.850071
vt 0.240624 0.728292
vt 0.711069 0.000000
vt 0.439578 0.725084
vt 0.847367 0.825398
vt 0.830606 0.842159
vt 0.806760 0.842159
vt 0.789999 0.801552
vt 0.830606 0.784791
vt 0.580841 0.842083
vt 0.635449 0.800686
vt 0.635450 0.824533
vt 0.466136 0.857972
vt 0.859770 0.727427
vt 0.844955 0.775596
vt 0.890061 0.727427
vt 0.144380 0.850071
vt 0.288741 0.728292
vt 0.969589 0.727427
vt 0.146526 0.725084
vt 0.790005 0.760945
vt 0.773238 0.784791
vt 0.749392 0.784791
vt 0.732631 0.768030
vt 0.749392 0.727423
vt 0.789999 0.744184
vt 0.555294 0.727340
vt 0.491683 0.800604
vt 0.730636 0.800686
vt 0.871196 0.851459
vt 0.844955 0.727429
vt 0.890925 0.727427
vt 0.000000 0.728846
vt 0.192506 0.850539
vn 0.0000 0.3105 0.9506
vn -0.9506 0.3105 0.0000
vn 0.9506 0.3105 0.0000
vn -0.0000 0.3105 -0.9506
vn 0.6722 0.3103 -0.6722
vn 0.7071 0.0000 0.7071
vn -0.7071 0.0000 0.7071
vn -0.6722 0.3103 -0.6722
vn -1.0000 0.0000 0.0000
vn -0.7071 0.0000 -0.7071
vn -0.6722 0.3103 0.6722
vn 0.6722 0.3103 0.6722
vn 0.7071 0.0000 -0.7071
vn -0.0000 0.0000 -1.0000
vn 1.0000 0.0000 0.0000
vn 0.0000 0.0000 1.0000
vn 0.0000 -1.0000 0.0000
vn 0.6693 -0.0163 0.7428
vn -0.0363 -0.9990 -0.0242
vn -0.5804 0.4881 -0.6518
vn -0.6686 0.0423 -0.7424
vn -0.7463 0.0043 0.6656
vn 0.7463 -0.0043 -0.6656
vn -0.6693 -0.0163 0.7428
vn 0.0363 -0.9990 -0.0242
vn 0.5804 0.4881 -0.6518
vn 0.6686 0.0423 -0.7424
vn 0.7463 0.0043 0.6656
vn -0.7463 -0.0043 -0.6656
vn 0.6693 -0.0163 -0.7428
vn -0.0363 -0.9990 0.0242
vn -0.5804 0.4881 0.6518
vn -0.6686 0.0423 0.7424
vn -0.7463 0.0043 -0.6656
vn 0.7463 -0.0043 0.6656
vn -0.6693 -0.0163 -0.7428
vn 0.0363 -0.9990 0.0242
vn 0.5804 0.4881 0.6518
vn 0.6686 0.0423 0.7424
vn 0.7463 0.0043 -0.6656
vn -0.7463 -0.0043 0.6656
vn -0.7427 0.0108 0.6695
vn 0.7427 -0.0108 -0.6695
vn 0.7427 0.0108 0.6695
vn -0.7427 -0.0108 -0.6695
vn -0.7427 0.0108 -0.6695
vn 0.7427 -0.0108 0.6695
vn 0.7427 0.0108 -0.6695
vn -0.7427 -0.0108 0.6695
usemtl Material
s off
f 6/1/1 129/2/1 3/3/1
f 129/4/2 2/5/2 4/6/2
f 5/7/3 7/8/3 129/9/3
f 8/10/4 1/11/4 129/12/4
f 8/13/5 129/9/5 7/8/5
f 15/14/6 5/15/6 6/1/6
f 17/16/7 3/17/7 4/6/7
f 2/18/8 129/12/8 1/11/8
f 2/18/9 17/19/9 4/20/9
f 2/18/10 19/21/10 20/22/10
f 129/4/11 4/6/11 3/17/11
f 129/2/12 6/1/12 5/15/12
f 8/13/13 13/23/13 14/24/13
f 14/25/14 1/11/14 8/10/14
f 16/26/15 7/27/15 5/15/15
f 6/1/16 18/28/16 15/14/16
f 10/29/17 14/30/17 13/31/17
f 21/32/17 16/33/17 15/34/17
f 23/35/17 18/36/17 17/37/17
f 12/38/17 20/39/17 19/40/17
f 11/41/17 17/37/17 20/39/17
f 9/42/17 19/40/17 14/30/17
f 24/43/17 15/34/17 18/36/17
f 22/44/17 13/31/17 16/33/17
f 10/45/7 26/46/7 9/47/7
f 31/48/17 25/49/17 27/50/17
f 22/51/9 25/52/9 10/53/9
f 9/54/16 31/55/16 12/56/16
f 12/56/6 32/57/6 11/58/6
f 21/59/10 28/60/10 22/51/10
f 24/61/14 27/62/14 21/59/14
f 11/58/15 29/63/15 23/64/15
f 23/65/13 30/66/13 24/67/13
f 40/68/18 35/69/18 38/70/18
f 37/71/19 35/72/19 36/73/19
f 40/74/20 34/75/20 33/76/20
f 39/77/21 36/78/21 34/75/21
f 34/79/22 35/80/22 33/81/22
f 38/82/23 39/83/23 40/84/23
f 46/85/1 43/86/1 129/87/1
f 129/88/3 44/89/3 42/90/3
f 45/91/2 129/92/2 47/93/2
f 48/94/4 129/95/4 41/96/4
f 48/97/8 47/93/8 129/92/8
f 45/98/7 55/99/7 46/85/7
f 43/100/6 57/101/6 44/89/6
f 42/102/5 41/96/5 129/95/5
f 57/101/15 42/90/15 44/89/15
f 59/103/13 42/102/13 60/104/13
f 129/88/12 43/100/12 44/89/12
f 129/87/11 45/98/11 46/85/11
f 53/105/10 48/97/10 54/106/10
f 54/106/14 41/107/14 59/108/14
f 56/109/9 47/93/9 53/105/9
f 58/110/16 46/111/16 55/112/16
f 53/113/17 49/114/17 50/115/17
f 55/116/17 62/117/17 61/118/17
f 57/119/17 64/120/17 63/121/17
f 59/122/17 51/123/17 52/124/17
f 60/125/17 63/121/17 51/123/17
f 54/126/17 52/124/17 49/114/17
f 58/127/17 61/118/17 64/120/17
f 56/128/17 50/115/17 62/117/17
f 66/129/6 50/130/6 49/131/6
f 65/132/17 71/133/17 69/134/17
f 65/135/15 62/136/15 50/130/15
f 71/137/16 49/131/16 52/138/16
f 72/139/7 52/140/7 51/141/7
f 68/142/13 61/143/13 62/144/13
f 67/145/14 64/146/14 61/147/14
f 69/148/9 51/149/9 63/150/9
f 70/151/10 63/150/10 64/146/10
f 75/152/24 80/153/24 78/154/24
f 76/155/25 78/156/25 77/157/25
f 80/158/26 74/159/26 79/160/26
f 79/160/27 76/161/27 77/162/27
f 75/163/28 74/164/28 73/165/28
f 79/166/29 78/167/29 80/168/29
f 86/169/4 83/170/4 129/171/4
f 129/172/2 84/173/2 82/174/2
f 85/175/3 129/176/3 87/177/3
f 88/178/1 129/179/1 81/180/1
f 88/181/12 87/177/12 129/176/12
f 85/182/13 95/183/13 86/169/13
f 83/184/10 97/185/10 84/173/10
f 82/186/11 81/180/11 129/179/11
f 97/185/9 82/174/9 84/173/9
f 99/187/7 82/186/7 100/188/7
f 129/172/8 83/184/8 84/173/8
f 129/171/5 85/182/5 86/169/5
f 93/189/6 88/181/6 94/190/6
f 94/190/16 81/191/16 99/192/16
f 96/193/15 87/177/15 93/189/15
f 98/194/14 86/195/14 95/196/14
f 93/197/17 89/198/17 90/199/17
f 95/200/17 102/201/17 101/202/17
f 97/203/17 104/204/17 103/205/17
f 99/206/17 91/207/17 92/208/17
f 100/209/17 103/205/17 91/207/17
f 94/210/17 92/208/17 89/198/17
f 98/211/17 101/202/17 104/204/17
f 96/212/17 90/199/17 102/201/17
f 106/213/10 90/214/10 89/215/10
f 105/216/17 111/217/17 109/218/17
f 105/219/9 102/220/9 90/214/9
f 111/221/14 89/215/14 92/222/14
f 112/223/13 92/224/13 91/225/13
f 108/226/7 101/227/7 102/228/7
f 107/229/16 104/230/16 101/231/16
f 109/232/15 91/233/15 103/234/15
f 110/235/6 103/234/6 104/230/6
f 115/236/30 120/237/30 118/238/30
f 116/239/31 118/240/31 117/241/31
f 120/242/32 114/243/32 119/244/32
f 119/244/33 116/245/33 117/246/33
f 115/247/34 114/248/34 113/249/34
f 119/250/35 118/251/35 120/252/35
f 126/253/4 129/254/4 123/255/4
f 129/256/3 122/257/3 124/258/3
f 125/259/2 127/260/2 129/261/2
f 128/262/1 121/263/1 129/264/1
f 128/265/11 129/261/11 127/260/11
f 136/266/10 125/267/10 126/253/10
f 138/268/13 123/269/13 124/258/13
f 122/270/12 129/264/12 121/263/12
f 122/270/15 138/271/15 124/272/15
f 122/270/6 140/273/6 141/274/6
f 129/256/5 124/258/5 123/269/5
f 129/254/8 126/253/8 125/267/8
f 128/265/7 134/275/7 135/276/7
f 135/277/16 121/263/16 128/262/16
f 137/278/9 127/279/9 125/267/9
f 126/253/14 139/280/14 136/266/14
f 131/281/17 135/282/17 134/283/17
f 142/284/17 137/285/17 136/286/17
f 144/287/17 139/288/17 138/289/17
f 133/290/17 141/291/17 140/292/17
f 132/293/17 138/289/17 141/291/17
f 130/294/17 140/292/17 135/282/17
f 145/295/17 136/286/17 139/288/17
f 143/296/17 134/283/17 137/285/17
f 131/297/13 147/298/13 130/299/13
f 152/300/17 146/301/17 148/302/17
f 143/303/15 146/304/15 131/305/15
f 130/306/14 152/307/14 133/308/14
f 133/308/10 153/309/10 132/310/10
f 142/311/6 149/312/6 143/303/6
f 145/313/16 148/314/16 142/311/16
f 132/310/9 150/315/9 144/316/9
f 144/317/7 151/318/7 145/319/7
f 161/320/36 156/321/36 159/322/36
f 158/323/37 156/324/37 157/325/37
f 161/326/38 155/327/38 154/328/38
f 160/329/39 157/330/39 155/327/39
f 155/331/40 156/332/40 154/333/40
f 159/334/41 160/335/41 161/336/41
f 15/14/6 16/26/6 5/15/6
f 17/16/7 18/337/7 3/17/7
f 2/18/9 20/22/9 17/19/9
f 2/18/10 1/11/10 19/21/10
f 8/13/13 7/8/13 13/23/13
f 14/25/14 19/21/14 1/11/14
f 16/26/15 13/338/15 7/27/15
f 6/1/16 3/3/16 18/28/16
f 10/29/17 9/42/17 14/30/17
f 21/32/17 22/44/17 16/33/17
f 23/35/17 24/43/17 18/36/17
f 12/38/17 11/41/17 20/39/17
f 11/41/17 23/35/17 17/37/17
f 9/42/17 12/38/17 19/40/17
f 24/43/17 21/32/17 15/34/17
f 22/44/17 10/29/17 13/31/17
f 10/45/7 25/339/7 26/46/7
f 27/50/17 30/340/17 29/341/17
f 29/341/17 32/342/17 31/48/17
f 31/48/17 26/343/17 25/49/17
f 25/49/17 28/344/17 27/50/17
f 27/50/17 29/341/17 31/48/17
f 22/51/9 28/60/9 25/52/9
f 9/54/16 26/345/16 31/55/16
f 12/56/6 31/55/6 32/57/6
f 21/59/10 27/62/10 28/60/10
f 24/61/14 30/346/14 27/62/14
f 11/58/15 32/57/15 29/63/15
f 23/65/13 29/347/13 30/66/13
f 40/68/18 33/348/18 35/69/18
f 37/71/19 38/349/19 35/72/19
f 40/74/20 39/77/20 34/75/20
f 39/77/21 37/350/21 36/78/21
f 34/79/42 36/351/42 35/80/42
f 38/82/43 37/352/43 39/83/43
f 45/98/7 56/353/7 55/99/7
f 43/100/6 58/110/6 57/101/6
f 57/101/15 60/354/15 42/90/15
f 59/103/13 41/96/13 42/102/13
f 53/105/10 47/93/10 48/97/10
f 54/106/14 48/97/14 41/107/14
f 56/109/9 45/91/9 47/93/9
f 58/110/16 43/100/16 46/111/16
f 53/113/17 54/126/17 49/114/17
f 55/116/17 56/128/17 62/117/17
f 57/119/17 58/127/17 64/120/17
f 59/122/17 60/125/17 51/123/17
f 60/125/17 57/119/17 63/121/17
f 54/126/17 59/122/17 52/124/17
f 58/127/17 55/116/17 61/118/17
f 56/128/17 53/113/17 50/115/17
f 66/129/6 65/135/6 50/130/6
f 69/134/17 70/355/17 67/356/17
f 67/356/17 68/357/17 65/132/17
f 65/132/17 66/358/17 71/133/17
f 71/133/17 72/359/17 69/134/17
f 69/134/17 67/356/17 65/132/17
f 65/135/15 68/360/15 62/136/15
f 71/137/16 66/129/16 49/131/16
f 72/139/7 71/361/7 52/140/7
f 68/142/13 67/362/13 61/143/13
f 67/145/14 70/151/14 64/146/14
f 69/148/9 72/363/9 51/149/9
f 70/151/10 69/148/10 63/150/10
f 75/152/24 73/364/24 80/153/24
f 76/155/25 75/365/25 78/156/25
f 80/158/26 73/366/26 74/159/26
f 79/160/27 74/159/27 76/161/27
f 75/163/44 76/367/44 74/164/44
f 79/166/45 77/368/45 78/167/45
f 85/182/13 96/369/13 95/183/13
f 83/184/10 98/194/10 97/185/10
f 97/185/9 100/370/9 82/174/9
f 99/187/7 81/180/7 82/186/7
f 93/189/6 87/177/6 88/181/6
f 94/190/16 88/181/16 81/191/16
f 96/193/15 85/175/15 87/177/15
f 98/194/14 83/184/14 86/195/14
f 93/197/17 94/210/17 89/198/17
f 95/200/17 96/212/17 102/201/17
f 97/203/17 98/211/17 104/204/17
f 99/206/17 100/209/17 91/207/17
f 100/209/17 97/203/17 103/205/17
f 94/210/17 99/206/17 92/208/17
f 98/211/17 95/200/17 101/202/17
f 96/212/17 93/197/17 90/199/17
f 106/213/10 105/219/10 90/214/10
f 109/218/17 110/371/17 107/372/17
f 107/372/17 108/373/17 105/216/17
f 105/216/17 106/374/17 111/217/17
f 111/217/17 112/375/17 109/218/17
f 109/218/17 107/372/17 105/216/17
f 105/219/9 108/376/9 102/220/9
f 111/221/14 106/213/14 89/215/14
f 112/223/13 111/377/13 92/224/13
f 108/226/7 107/378/7 101/227/7
f 107/229/16 110/235/16 104/230/16
f 109/232/15 112/379/15 91/233/15
f 110/235/6 109/232/6 103/234/6
f 115/236/30 113/380/30 120/237/30
f 116/239/31 115/381/31 118/240/31
f 120/242/32 113/382/32 114/243/32
f 119/244/33 114/243/33 116/245/33
f 115/247/46 116/383/46 114/248/46
f 119/250/47 117/384/47 118/251/47
f 136/266/10 137/278/10 125/267/10
f 138/268/13 139/385/13 123/269/13
f 122/270/15 141/274/15 138/271/15
f 122/270/6 121/263/6 140/273/6
f 128/265/7 127/260/7 134/275/7
f 135/277/16 140/273/16 121/263/16
f 137/278/9 134/386/9 127/279/9
f 126/253/14 123/255/14 139/280/14
f 131/281/17 130/294/17 135/282/17
f 142/284/17 143/296/17 137/285/17
f 144/287/17 145/295/17 139/288/17
f 133/290/17 132/293/17 141/291/17
f 132/293/17 144/287/17 138/289/17
f 130/294/17 133/290/17 140/292/17
f 145/295/17 142/284/17 136/286/17
f 143/296/17 131/281/17 134/283/17
f 131/297/13 146/387/13 147/298/13
f 148/302/17 151/388/17 150/389/17
f 150/389/17 153/390/17 152/300/17
f 152/300/17 147/391/17 146/301/17
f 146/301/17 149/392/17 148/302/17
f 148/302/17 150/389/17 152/300/17
f 143/303/15 149/312/15 146/304/15
f 130/306/14 147/393/14 152/307/14
f 133/308/10 152/307/10 153/309/10
f 142/311/6 148/314/6 149/312/6
f 145/313/16 151/394/16 148/314/16
f 132/310/9 153/309/9 150/315/9
f 144/317/7 150/395/7 151/318/7
f 161/320/36 154/396/36 156/321/36
f 158/323/37 159/397/37 156/324/37
f 161/326/38 160/329/38 155/327/38
f 160/329/39 158/398/39 157/330/39
f 155/331/48 157/399/48 156/332/48
f 159/334/49 158/400/49 160/335/49
